<?xml version="1.0" encoding="utf-8"?>
<!-- Generator: Adobe Illustrator 27.0.0, SVG Export Plug-In . SVG Version: 6.00 Build 0)  -->
<svg version="1.1" id="圖層_1" xmlns="http://www.w3.org/2000/svg" xmlns:xlink="http://www.w3.org/1999/xlink" x="0px" y="0px"
	 viewBox="0 0 772.333 280.956" style="enable-background:new 0 0 772.333 280.956;" xml:space="preserve">
<g>
	<g>
		<path style="fill:#FFFFFF;" d="M221.527,172.709c0.125,0.047,0.254,0.106,0.37,0.17c6.44,3.555,9.663,6.775,9.663,9.658
			c0,2.565-4.532,3.848-13.597,3.848c-13.985-0.323-29.052-0.485-45.206-0.485c-16.875,0-38.934,1.068-66.177,3.205
			c-19.529,1.068-40.386,4.144-62.562,9.219c-6.272,1.603-10.129,2.403-11.574,2.403c-2.942,0-7.353-1.278-13.237-3.84
			c-6.232-2.728-9.344-4.949-9.344-6.657c0-2.027,1.983-3.217,5.949-3.574c0.078-0.007,0.162-0.011,0.24-0.012
			c24.434-0.238,42.361-1.426,53.786-3.558c0.051-0.009,0.099-0.017,0.15-0.023c21.662-2.619,45.468-4.638,71.418-6.065
			c24.544-2.146,43.369-4.528,56.477-7.15c5.479-0.951,8.936-1.429,10.367-1.429C209.446,168.418,213.875,169.851,221.527,172.709z
			 M180.202,91.987c3.157,1.376,4.739,3.087,4.739,5.144c0,1.973-2.616,3.525-7.845,4.656c-0.067,0.014-0.131,0.031-0.196,0.052
			c-6.18,1.982-19.814,4.526-40.9,7.626c-32.074,4.253-52.988,6.378-62.749,6.378c-6.926,0-11.778-0.76-14.558-2.284
			c-0.108-0.059-0.211-0.126-0.311-0.197c-2.649-1.887-3.973-3.519-3.973-4.901c0-1.603,3.832-2.541,11.505-2.809
			c18.073-1.606,37.93-4.281,59.572-8.028c15.062-2.408,27.251-4.949,36.566-7.628c3.286-1.068,5.476-1.606,6.572-1.606
			C171.607,88.39,175.468,89.592,180.202,91.987z M183.311,135.497c3.156,1.376,4.738,3.088,4.738,5.144
			c0,1.546-2.723,2.76-8.17,3.643c-6.305,1.546-20.352,3.532-42.135,5.961c-32.965,3.31-54.461,4.965-64.493,4.965
			c-6.925,0-11.778-0.76-14.557-2.283c-0.108-0.059-0.212-0.126-0.312-0.198c-2.648-1.888-3.973-3.519-3.973-4.9
			c0-1.271,3.938-2.016,11.816-2.229c18.566-1.271,38.966-3.396,61.195-6.37c15.475-1.91,27.991-3.93,37.558-6.054
			c3.375-0.85,5.629-1.274,6.754-1.274C174.715,131.9,178.576,133.102,183.311,135.497z"/>
		<path style="fill:#FFFFFF;" d="M368.024,70.988c5.107,3.218,7.665,5.868,7.665,7.948c0,1.48-0.991,3.326-2.967,5.544
			c-4.495,5.423-7.551,9.854-9.17,13.302c-11.33,22.67-22.03,40.159-32.099,52.478c-9.89,12.071-19.962,21.558-30.209,28.453
			c-8.813,5.916-15.466,8.87-19.958,8.87c-0.983,0-1.474-0.348-1.474-1.052c0-0.498,0.709-1.498,2.133-2.995
			c13.152-9.736,25.065-21.974,35.733-36.704c10.488-14.479,18.841-28.335,25.065-41.567c5.689-12.731,8.534-20.594,8.534-23.593
			c0-1.263-0.772-1.894-2.314-1.894c-1.946,0-4.864,0.453-8.758,1.352c-5.597,0.676-9.854,1.012-12.771,1.012
			c-2.747,0-5.312-0.466-7.692-1.404c-1.465-0.559-2.197-1.214-2.197-1.963c0-1.566,1.582-2.546,4.755-2.938
			c12.679-2.153,22.398-4.698,29.161-7.637c2.958-0.979,5.07-1.469,6.341-1.469C359.695,66.731,363.103,68.151,368.024,70.988z
			 M464.887,240.19c5.366,3.254,8.053,6.253,8.053,8.996c0,2.569-2.169,3.856-6.507,3.856c-3.816,0-8.673-0.162-14.572-0.485
			c-5.9-0.324-12.403-0.485-19.518-0.485c-13.808,0-30.63,1.016-50.476,3.051c-21.86,2.031-38.683,4.504-50.471,7.414
			c-5.754,1.74-9.206,2.614-10.355,2.614c-2.573,0-6.52-1.834-11.833-5.5c-4.803-2.966-7.203-5.147-7.203-6.544
			c0-1.707,1.595-2.683,4.783-2.926c8.588,0,20.117-0.975,34.596-2.921c28.214-3.173,46.983-5.124,56.307-5.852
			c7.851-0.732,19.012-1.708,33.486-2.922c13.249-1.951,20.242-2.926,20.979-2.926C454.232,235.562,458.477,237.103,464.887,240.19z
			 M312.992,109.153c6.863,1.789,12.015,3.755,15.45,5.9c3.027,2.505,4.545,5.904,4.545,10.193c0,4.953-2.04,7.43-6.119,7.43
			c-1.829,0-3.771-0.81-5.827-2.432c-3.885-2.922-9.368-9.085-16.45-18.494c-0.914-0.971-1.371-1.703-1.371-2.189
			c0.278-1.165,0.91-1.748,1.894-1.748C307.533,107.813,310.159,108.263,312.992,109.153z M343.505,165.172
			c5.418,1.886,8.13,4.169,8.13,6.84c0,1.999,0.178,4.087,0.542,6.256c2.29,13.298,3.439,22.468,3.439,27.51
			c0,2.606-0.393,4.678-1.178,6.212c-0.789,1.688-1.731,2.529-2.828,2.529c-1.263,0-2.521-1.017-3.775-3.048
			c-1.886-2.658-2.91-5.475-3.063-8.445l-2.533-12.792c-0.987-6.66-2.044-11.322-3.169-13.989c-0.704-2.752-2.537-5.285-5.491-7.596
			c-1.129-0.619-1.691-1.064-1.691-1.331c0-2.372,1.003-3.562,3.019-3.562C338.159,163.756,341.024,164.23,343.505,165.172z
			 M422.509,159.552c5.819,4.119,8.733,7.284,8.733,9.497c0,1.182-0.664,2.359-1.983,3.541c-4.302,4.524-7.445,9.34-9.429,14.451
			l-4.217,8.85c-1.821,4.132-4.468,6.196-7.939,6.196c-3.885,0-5.827-1.077-5.827-3.237c0-0.615,0.308-1.846,0.931-3.691
			c0.615-3.075,1.546-8.097,2.784-15.069c0.825-5.33,1.238-8.713,1.238-10.149c0-2.371-2.161-3.562-6.475-3.562
			c-3.824,0-9.798,0.481-17.919,1.44c-9.316,0.96-18.275,2.4-26.875,4.318c-1.675,0.574-3.107,0.862-4.302,0.862
			c-2.809,0-5.459-0.943-7.951-2.829c-2.655-1.57-3.979-2.829-3.979-3.775c0-1.412,1.247-2.121,3.739-2.121
			c4.366-0.178,8.838-0.631,13.411-1.352c9.979-1.44,24.43-3.334,43.353-5.682c2.91-0.359,5.718-0.991,8.421-1.894
			c1.664-0.36,2.809-0.542,3.432-0.542C413.384,154.805,417.001,156.387,422.509,159.552z M352.415,216.752
			c6.014,2.979,10.522,6.256,13.533,9.829c2.65,4.169,3.978,9.826,3.978,16.977c0,5.504-2.267,8.255-6.799,8.255
			c-1.525,0-3.145-1.242-4.855-3.723c-3.242-4.468-7.814-13.889-13.719-28.278c-0.761-1.489-1.142-2.606-1.142-3.351
			c0.312-1.295,1.012-1.942,2.104-1.942C347.637,214.519,349.939,215.263,352.415,216.752z M405.403,129.306
			c2.894,1.259,4.343,2.829,4.343,4.715c0,1.004-1.04,1.793-3.12,2.367c-2.412,1.004-7.774,2.295-16.095,3.873
			c-12.593,2.152-20.808,3.229-24.636,3.229c-6.467,0-10.963-0.725-13.488-2.174c-2.525-1.772-3.783-3.302-3.783-4.593
			c0-0.857,1.55-1.355,4.649-1.501c7.305-0.854,15.329-2.282,24.078-4.286c6.086-1.286,11.016-2.643,14.778-4.07
			c1.327-0.571,2.214-0.858,2.659-0.858C397.521,126.008,401.058,127.108,405.403,129.306z M415.994,196.449
			c3.432,2.307,5.147,4.229,5.147,5.767c0,1.368-0.887,2.048-2.651,2.048c-7.073,0-13.557,0.457-19.448,1.368l-27.4,3.071
			c-5.01,0.684-8.842,1.023-11.493,1.023c-4.051,0-6.811-0.736-8.279-2.213c-1.473-1.474-2.209-2.857-2.209-4.148
			c0-1.845,1.165-2.768,3.496-2.768c14.087-0.976,27.214-2.805,39.387-5.487c6.722-1.219,11.205-1.829,13.447-1.829
			C408.276,193.281,411.611,194.337,415.994,196.449z M410.094,85.626c20.205,24.106,35.215,39.884,45.023,47.33
			c10.102,7.454,26.296,16.438,48.586,26.951c2.97,1.319,4.459,2.635,4.459,3.945c0,1.494-1.444,2.61-4.33,3.355
			c-16.445,3.917-27.846,5.871-34.19,5.871c-4.039,0-8.224-1.63-12.553-4.9c-4.33-3.674-17.025-21.241-38.088-52.696
			c-6.354-9.801-12.412-18.178-18.183-25.122c-5.483-6.535-10.82-11.234-16.013-14.095c-2.023-0.405-3.031-1.631-3.031-3.675
			c0-2.266,1.861-3.399,5.585-3.399C392.409,69.191,399.989,74.671,410.094,85.626z M418.612,207.206
			c4.965,3.221,7.45,6.065,7.45,8.542c0,0.583-1.028,1.744-3.084,3.488c-2.399,3.197-4.625,6.391-6.682,9.587
			c-6.854,8.717-12.508,14.523-16.959,17.43c-3.084,2.322-5.14,3.488-6.168,3.488c-1.404-0.255-2.104-0.887-2.104-1.895
			c4.921-8.498,8.612-15.673,11.072-21.532c1.639-4.687,2.461-8.349,2.461-10.987c0-1.477-0.421-3.941-1.263-7.397
			c0.493-3.205,1.986-4.807,4.472-4.807C410.539,203.123,414.141,204.486,418.612,207.206z M419.523,49.8
			c1.534,0,4.411,1.44,8.632,4.322c4.605,3.65,6.908,6.151,6.908,7.495c0,1.222-0.858,2.242-2.57,3.06
			c-6.216,3.872-16.073,8.968-29.569,15.284c-1.287,0.615-2.469,0.919-3.537,0.919c-0.542,0-0.81-0.377-0.81-1.133
			c0-0.199,0.353-0.6,1.064-1.198c4.022-4.589,7.454-8.983,10.295-13.176c3.788-5.188,6.39-9.68,7.811-13.476
			C418.22,50.5,418.811,49.8,419.523,49.8z M449.112,72.591c1.935,0,5.196,1.797,9.781,5.391c4.225,3.253,6.341,6.248,6.341,8.983
			c0,1.651-1.643,2.967-4.929,3.954c-5.973,1.48-12.69,3.706-20.157,6.669c-13.438,5.438-21.5,8.154-24.188,8.154
			c-0.906,0-1.359-0.494-1.359-1.485c0-0.655,0.324-1.068,0.972-1.234c6.705-3.853,12.521-8.045,17.441-12.573
			c4.022-3.521,8.271-8.721,12.743-15.596C446.652,73.348,447.769,72.591,449.112,72.591z"/>
		<path style="fill:#FFFFFF;" d="M545.866,132.482c3.492,2.376,5.24,4.396,5.24,6.055c-0.154,3.03-0.906,9.259-2.258,18.68
			c-1.659,9.761-2.485,15.988-2.485,18.68c0,1.068,0.83,1.603,2.493,1.603c0.498,0,1.995-0.283,4.487-0.851
			c9.138-2.549,19.194-4.961,30.161-7.231c9.307-1.699,15.62-2.553,18.946-2.553c3.439,0,5.164,0.95,5.164,2.849
			c0,2.266-1.615,3.779-4.84,4.532c-22.039,4.281-38.076,8.562-48.112,12.84c-4.483,1.514-8.963,4.031-13.438,7.556
			c-1.793,1.514-3.048,2.267-3.764,2.267c-1.19,0-2.971-1.542-5.342-4.63c-2.849-4.034-4.273-7.122-4.273-9.259
			c0-1.659,0.801-4.479,2.412-8.462c3.391-9.287,5.18-19.574,5.357-30.856c0-3.755-0.445-6.693-1.335-8.806
			c-0.891-2.347-1.336-3.877-1.336-4.581c0-1.878,1.048-2.816,3.145-2.816C538.416,127.497,541.674,129.16,545.866,132.482z
			 M579.32,73.684c3.407,1.736,5.115,3.646,5.115,5.73c0,1.388-0.255,2.861-0.766,4.423c-0.68,3.129-1.016,5.734-1.016,7.814
			l-2.314,85.872h-12.286l-1.603-91.214c-0.17-2.407-1.007-4.989-2.513-7.745c-1.174-1.376-1.761-2.408-1.761-3.1
			c0-3.096,1.619-4.646,4.86-4.646C570.275,70.819,574.371,71.773,579.32,73.684z M735.998,199.403c6.264,3.93,9.4,6.924,9.4,8.98
			c-0.19,2.06-3.137,3.181-8.838,3.366c-17.891,0.405-38.335,1.724-61.333,3.95c-13.014,1.218-30.204,3.549-51.575,6.992
			c-4.185,0.81-6.742,1.214-7.669,1.214c-3.917,0-7.83-1.035-11.739-3.107c-4.662-1.882-6.989-3.671-6.989-5.366
			c0-0.753,1.753-1.505,5.261-2.258c43.065-4.934,78.418-9.57,106.058-13.913c9.672-1.772,15.773-2.662,18.308-2.662
			C727.827,196.6,730.866,197.534,735.998,199.403z M612.491,127.218c4.8,2.748,7.199,5.151,7.199,7.207
			c0,0.462-0.396,1.453-1.186,2.979c-1.267,2.599-2.218,8.252-2.849,16.96c-1.267,10.238-2.533,18.182-3.796,23.831
			c-0.474,3.82-1.502,6.803-3.084,8.939c-1.582,1.684-3.007,2.521-4.27,2.521c-1.093,0-2.363-1.287-3.815-3.869
			c-0.911-2.233-1.364-3.698-1.364-4.387c0-0.445,0.344-4.447,1.036-12.015c0.688-8.308,1.036-18.991,1.036-32.046
			c-0.17-2.072-0.765-4.144-1.781-6.216c-1.189-1.724-1.78-2.849-1.78-3.367c0-0.518,0.769-1.38,2.314-2.59l2.315-0.776
			C605.033,124.39,608.376,125.332,612.491,127.218z M650.349,40.994c6.256,4.104,9.389,7.665,9.389,10.683
			c0,0.866-0.802,1.878-2.404,3.035c-1.408,1.736-2.909,3.905-4.512,6.507c-7.22,11.853-14.435,21.683-21.65,29.488
			c-5.815,6.361-12.432,11.857-19.85,16.479c-5.014,3.181-8.319,4.771-9.922,4.771c-1.081,0-1.619-0.268-1.619-0.81
			c0-0.559,0.587-1.255,1.761-2.097c6.264-6.15,12.532-13.564,18.801-22.232c5.674-7.826,10.861-16.777,15.563-26.846
			c2.938-6.151,4.407-11.885,4.407-17.199c0-2.914,0.972-4.37,2.914-4.37C644.95,38.404,647.325,39.27,650.349,40.994z
			 M703.745,57.189c5.127,3.011,7.693,5.459,7.693,7.34c0,1.028-0.66,2.053-1.979,3.076c-3.019,2.048-6.131,4.993-9.336,8.834
			c-12.447,16.907-22.633,29.201-30.553,36.882c-8.676,8.968-17.069,16.522-25.179,22.67c-11.129,7.685-21.124,13.192-29.986,16.519
			c-3.209,1.283-5.471,1.923-6.79,1.923c-1.068,0-1.603-0.296-1.603-0.891c14.135-10.521,25.915-20.129,35.344-28.812
			c8.102-7.892,15.738-16.309,22.9-25.256c6.782-9.211,12.063-16.973,15.835-23.289c2.258-3.683,3.392-5.787,3.392-6.313
			c0-1.186-0.951-1.78-2.849-1.78c-14.213,3.141-23.941,4.711-29.186,4.711c-1.688,0-3.938-0.377-6.746-1.13
			c-2.626-1.125-3.938-2.16-3.938-3.1c0-1.125,2.137-1.971,6.41-2.537c17.426-2.723,30.391-6.264,38.897-10.626
			c3.111-1.635,5.395-2.453,6.847-2.453C694.628,52.956,698.237,54.369,703.745,57.189z M658.822,94.31
			c23.391,15.232,40.759,25.203,52.114,29.914c11.694,4.71,30.439,10.388,56.237,17.032c3.439,0.834,5.159,1.663,5.159,2.493
			c0,1.392-1.654,2.436-4.965,3.132c-18.878,3.654-31.957,5.479-39.241,5.479c-4.638,0-9.438-1.061-14.402-3.185
			c-4.97-2.388-19.542-13.796-43.709-34.224c-7.288-6.365-14.24-11.805-20.861-16.316c-6.296-4.245-12.423-7.296-18.38-9.153
			c-2.318-0.264-3.477-1.061-3.477-2.388c0-2.112,1.736-3.173,5.213-3.173C638.354,83.922,647.127,87.386,658.822,94.31z
			 M699.371,145.93c2.367,1.028,3.553,2.315,3.553,3.856c0,1.243-1.461,2.218-4.375,2.926c-3.379,1.243-10.901,2.837-22.572,4.788
			c-17.66,2.662-29.173,3.989-34.547,3.989c-5.293,0-8.972-0.591-11.036-1.78c-2.063-1.448-3.096-2.699-3.096-3.755
			c0-1.016,2.129-1.611,6.386-1.781c10.028-1.016,21.052-2.711,33.062-5.091c8.36-1.525,15.122-3.136,20.29-4.831
			c1.825-0.681,3.043-1.021,3.65-1.021C692.92,143.23,695.817,144.133,699.371,145.93z M699.12,173.343
			c4.604,1.635,6.911,3.035,6.911,4.2c0,1.87-2.792,3.388-8.368,4.553c-5.366,0.555-9.902,1.108-13.617,1.663
			c-3.303,0.555-11.76,1.938-25.373,4.152c-7.43,1.108-12.792,1.663-16.094,1.663c-3.562,0-6.532-0.356-8.903-1.068
			c-3.561-1.186-5.342-2.493-5.342-3.917c0-2.137,2.788-3.322,8.369-3.562c15.475-2.096,30.524-4.819,45.142-8.179
			c4.297-0.837,6.664-1.258,7.094-1.258C690.634,171.591,694.029,172.177,699.12,173.343z M669.121,130.885
			c5.173,2.385,7.76,5.028,7.76,7.925c0,0.258-0.52,1.679-1.552,4.263c-1.382,4.907-2.16,10.198-2.329,15.879l-1.036,68.951
			c-0.173,13.167-1.378,24.658-3.618,34.473c-2.071,8.626-3.88,12.942-5.431,12.942c-1.898,0-3.364-3.074-4.396-9.219
			c-0.346-7.599-0.519-17.64-0.519-30.122v-82.63c0-7.22-0.689-13.152-2.067-17.793c-0.693-2.231-1.036-3.61-1.036-4.126
			c0-2.063,1.12-3.264,3.36-3.61C659.982,127.819,663.601,128.843,669.121,130.885z"/>
	</g>
	<path style="fill:#FFFFFF;" d="M119.896,102.523c10.472,1.327,12.984,1.029,14,3c1.227,2.38-2.488,4.9-3,9c-1,8-2,17-3,24
		l-3.87,82.824c-0.174,16.553-1.384,31-3.634,43.338c-2.08,10.845-3.896,16.27-5.455,16.27c-1.906,0-3.379-3.864-4.415-11.589
		c-0.348-9.553-0.521-22.176-0.521-37.868v-103.88c-0.501-9.216-1.85-15.681-3.104-20.095c-0.417-1.468-1.07-3.574,0-5
		C108.295,100.659,111.512,101.461,119.896,102.523z"/>
	<path style="fill:#FFFFFF;" d="M67.364,60.793c-0.739,5.196-2.578,10.213-5.636,14.468c-2.021,2.811-4.617,5.501-8.227,7.668
		c-10.824,6.496-22.415,4.284-27,3.012c-4.797-1.331-12.896-4.582-18-12.049c-4.031-5.899-7.018-12.875-7-21.086
		c0.021-9.336,3.046-19.924,11-30.123c6.048-7.756,14.701-12.894,20-15.062c8.371-3.424,14.247-5.63,28-6.025
		c16.521-0.475,24.913,0.877,28,2.427c2,1.004,8.111,4.095,12,8c6,6.025,6,5.975,9,12c3.889,7.81,4,8.979,5,14
		c0.868,4.36,1.5,10.674,2,14.783c1,8.217,4,36.148,4,48.197c0,5.185-7.691,6.334-11,3.012c-2-2.008-1.278-13.892-5-25.103
		c-1.5-4.519-4.14-17.55-10-27.111c-8-13.053-13-27.111-26-29.119c-17.062-2.636-23-4.016-40,8.033c-1.91,1.354-13,11.045-12,27.111
		c1.023,16.437,18.521,20.577,29,17.07c6-2.008,13.804-9.971,21.431-14.719c0.224-0.139,0.513,0.054,0.475,0.316L67.364,60.793z"/>
	<path style="fill:#FFFFFF;" d="M66.5,61.523"/>
	<path style="fill:#FFFFFF;" d="M173.525,62.436c0.739,5.196,2.578,10.213,5.636,14.468c2.021,2.811,4.617,5.501,8.227,7.668
		c10.824,6.496,22.415,4.284,27,3.012c4.797-1.331,12.896-4.582,18-12.049c4.031-5.899,7.018-12.875,7-21.086
		c-0.021-9.336-3.046-19.924-11-30.123c-6.048-7.756-14.701-12.894-20-15.062c-8.371-3.424-14.247-5.63-28-6.025
		c-16.521-0.475-24.913,0.877-28,2.427c-2,1.004-8.111,4.095-12,8c-6,6.025-6,5.975-9,12c-3.889,7.81-4,8.979-5,14
		c-0.869,4.36-1.5,10.674-2,14.783c-1,8.217-4,36.148-4,48.197c0,5.185,7.691,6.334,11,3.012c2-2.008,1.278-13.892,5-25.103
		c1.5-4.519,4.14-17.55,10-27.111c8-13.053,13-27.111,26-29.119c17.062-2.636,23-4.016,40,8.033c1.91,1.354,13,11.045,12,27.111
		c-1.023,16.437-18.521,20.577-29,17.07c-6-2.008-13.804-9.971-21.431-14.719c-0.224-0.139-0.513,0.054-0.475,0.316L173.525,62.436z
		"/>
</g>
<g>
</g>
<g>
</g>
<g>
</g>
<g>
</g>
<g>
</g>
<g>
</g>
</svg>
