<?xml version="1.0" encoding="utf-8"?>
<!-- Generator: Adobe Illustrator 27.0.0, SVG Export Plug-In . SVG Version: 6.00 Build 0)  -->
<svg version="1.1" id="圖層_1" xmlns="http://www.w3.org/2000/svg" xmlns:xlink="http://www.w3.org/1999/xlink" x="0px" y="0px"
	 viewBox="0 0 666.163 1083" style="enable-background:new 0 0 666.163 1083;" xml:space="preserve">
<g>
	<path style="fill:#FFFFFF;stroke:#000000;stroke-width:3;stroke-miterlimit:10;" d="M62.32,699.269
		c6.468,5.923,9.971,8.456,15.173,12.555c8.547,6.735,14.967,13.567,27.991,27.959c40.409,44.652,37.927,71.074,37.863,82.164
		c-0.097,17.082-10.614,15.938-6.815,39.504c6.815,42.281,9.332,73.435,36.082,102.948c1.482,1.635,17.896,16.939,18.442,16.575
		c15.642-10.453,42.596-34.834,46.951-53.766c6.43-27.956-46.951-18.932-47.708-70.426c-0.682-46.407-4.459-87.021,11.359-132.522
		c3.399-9.778,39.176-108.362,129.493-155.997c3.223-1.7,43.664-18.403,49.222-8.33c1.383,2.507,1.991,4.457,2.012,6.315
		c0.103,8.912-6.214,15.802-7.13,17.743c-7.824,16.588-14.95,56.591-14.193,85.746c1.683,64.809-9.921,80.79-4.165,87.843
		c8.294,10.163,31.784,3.504,40.514-7.951c9.417-12.357-3.155-23.284,2.375-49.11c2.624-12.257,20.585-33.789,27.159-47.441
		c24.475-50.832,7.798-41.126,30.291-68.911c6.437-7.951,18.895-4.883,30.291-11.738c23.4-14.076,56.174-38.667,75.348-76.863
		c27.352-54.488-12.507-124.614-0.757-128.736c3.578-1.255,8.497,4.82,12.874,9.844c36.759,42.198,84.931,67.203,89.358,62.853
		c3.874-3.807-29.273-26.66-30.291-63.611c-0.765-27.788,17.36-37.447,20.446-62.853c4.668-38.431-42.617-64.664-48.465-90.115
		C587.415,141.9,520.189,30.337,425.051,5.611c-123.226-32.026-211.974,133.395-196.89,140.095
		c0.269,0.119,42.499-55.64,89.543-62.47c86.095-12.499,131.335,16.243,170.958,51.111c7.401,6.513,11.909,12.795,14.609,19.207
		c4.403,10.455,9.694,27.649,3.565,32.287c-6.76,5.116-19.474-6.88-40.135-7.573c-18.453-0.619-25.129,7.461-41.65,15.145
		c-46.226,21.501-102.36-24.149-109.047-13.631c-3.835,6.033,13.549,23.156,32.563,39.378
		c48.582,41.451,113.014-0.67,102.989,10.602c-12.948,14.556-56.527,95.684-81.028,120.658
		c-10.725,10.932-30.919-1.132-37.447-2.524c-23.472-5.008-31.919-3.741-44.906-0.189
		c-55.849,15.272-174.194,118.565-197.458,164.517c-15.402,30.422-22.694,42.368-34.775,87.245
		c-0.039,0.143-0.081,0.281-0.129,0.421c-0.852,2.446-9.226,26.811-13.078,50.117c-1.235,7.473-1.704,8.901-3.385,13.292
		c-0.399,1.043-1.945,5.519-5.048,9.592c-9.042,11.866-31.246,28.749-32.563,34.456c-1.325,5.743,3.115,11.781,7.478,13.315
		c3.988,1.403,33.656-27.747,40.23-29.092C53.869,690.665,53.74,691.412,62.32,699.269z"/>
	<path style="fill:#FFFFFF;stroke:#000000;stroke-width:3;stroke-miterlimit:10;" d="M564.758,533.076
		c-10.129-3.431-36.537,28.998-40.936,35.95c-4.854,7.672,17.252,14.654,26.766,18.369c12.242,4.78,18.879,4.25,22.042,9.972
		c3.395,6.141-1.909,20.947-7.357,25.97c-3.679,3.392-14.16,8.143-26.494,29.398c-6.493,11.19-29.342-11.911-34.769-4.592
		c-4.088,5.514-5.314,7.347-7.872,19.484c-3.316,15.73,43.917,11.689,51.126,8.463c36.737-16.444,77.148-40.236,93.593-58.255
		c8.792-9.634-15.826-14.788-39.361-39.361C578.341,554.297,575.129,536.589,564.758,533.076z"/>
	<path style="fill:#FFFFFF;stroke:#000000;stroke-width:3;stroke-miterlimit:10;" d="M243.559,673.522
		c-12.274,7.811-29.083,38.657-28.524,63.863c0.243,10.957,14.893,14.641,24.485,33.067c5.605,10.767,4.709,15.092,8.078,25.242
		c9.783,29.477,27.101,61.235,39.126,61.591c1.147,0.034,7.655-5.778,12.874-16.66c9.547-19.906,18.651-31.228,14.641-32.815
		c-12.116-4.796-20.144-5.517-30.796-19.689c-7.503-9.983-6.925-22.773-6.563-30.796c0.905-20.037,8.363-23.915,7.573-35.844
		C281.928,683.388,260.219,662.92,243.559,673.522z"/>
	<path style="fill:none;stroke:#000000;stroke-width:5;stroke-miterlimit:10;" d="M7.796,724.511"/>
	<path style="fill:#FFFFFF;stroke:#000000;stroke-width:3;stroke-miterlimit:10;" d="M21.932,1081.5
		c-0.132-1.481,1.394-2.532,27.135-15.643c69.861-35.582,90.81-44.235,118.134-63.232c17.197-11.957,29.015-22.451,36.255-29.04
		c20.827-18.954,44.752-46.136,80.426-98.616c29.181-42.927,62.906-106.462,73.565-108.854c2.857-0.641,9.885-0.859,21.347-3.165
		c10.034-2.019,24.791-7.583,53.89-11.794c8.519-1.233,19.365-4.501,22.907,4.354c1.136,2.84,7.478,28.966,8.898,44.868
		c2.027,22.706,5.321,50.655,8.269,65.181c15.713,77.431,16.281,66.64,81.578,215.94H21.932z"/>
</g>
<g>
</g>
<g>
</g>
<g>
</g>
<g>
</g>
<g>
</g>
<g>
</g>
</svg>
